<svg width="488" height="490" viewBox="0 0 488 490" fill="none" xmlns="http://www.w3.org/2000/svg">
<path d="M0 5.00001C0 2.23859 2.23858 0 5 0H445C447.761 0 450 2.23858 450 5V445C450 447.761 447.761 450 445 450H5.00001C2.23859 450 0 447.761 0 445V5.00001Z" fill="#03007E"/>
<path d="M45 45C45 42.2386 47.2386 40 50 40H483C485.761 40 488 42.2386 488 45V485C488 487.761 485.761 490 483 490H50C47.2386 490 45 487.761 45 485V45Z" fill="#03007E"/>
<path d="M20 25C20 22.2386 22.2386 20 25 20H465C467.761 20 470 22.2386 470 25V465C470 467.761 467.761 470 465 470H25C22.2386 470 20 467.761 20 465V25Z" fill="white"/>
<path d="M66 78C66 75.2386 68.2386 73 71 73H418C420.761 73 423 75.2386 423 78V411C423 413.761 420.761 416 418 416H71C68.2386 416 66 413.761 66 411V78Z" fill="#03007E"/>
<path d="M119.754 392.096C105.478 392.096 91.632 390.204 78.216 386.42C64.972 382.464 54.308 377.39 46.224 371.198L60.414 339.722C68.154 345.398 77.356 349.956 88.02 353.396C98.684 356.836 109.348 358.556 120.012 358.556C131.88 358.556 140.652 356.836 146.328 353.396C152.004 349.784 154.842 345.054 154.842 339.206C154.842 334.906 153.122 331.38 149.682 328.628C146.414 325.704 142.114 323.382 136.782 321.662C131.622 319.942 124.57 318.05 115.626 315.986C101.866 312.718 90.6 309.45 81.828 306.182C73.056 302.914 65.488 297.668 59.124 290.444C52.932 283.22 49.836 273.588 49.836 261.548C49.836 251.056 52.674 241.596 58.35 233.168C64.026 224.568 72.54 217.774 83.892 212.786C95.416 207.798 109.434 205.304 125.946 205.304C137.47 205.304 148.736 206.68 159.744 209.432C170.752 212.184 180.384 216.14 188.64 221.3L175.74 253.034C159.056 243.574 142.372 238.844 125.688 238.844C113.992 238.844 105.306 240.736 99.63 244.52C94.126 248.304 91.374 253.292 91.374 259.484C91.374 265.676 94.556 270.32 100.92 273.416C107.456 276.34 117.346 279.264 130.59 282.188C144.35 285.456 155.616 288.724 164.388 291.992C173.16 295.26 180.642 300.42 186.834 307.472C193.198 314.524 196.38 324.07 196.38 336.11C196.38 346.43 193.456 355.89 187.608 364.49C181.932 372.918 173.332 379.626 161.808 384.614C150.284 389.602 136.266 392.096 119.754 392.096ZM300.825 325.825H326.725V375.525C320.075 380.542 312.375 384.392 303.625 387.075C294.875 389.758 286.067 391.1 277.2 391.1C264.484 391.1 253.05 388.417 242.9 383.05C232.75 377.567 224.759 370.042 218.925 360.475C213.209 350.792 210.35 339.883 210.35 327.75C210.35 315.617 213.209 304.767 218.925 295.2C224.759 285.517 232.809 277.992 243.075 272.625C253.342 267.142 264.892 264.4 277.725 264.4C288.459 264.4 298.2 266.208 306.95 269.825C315.7 273.442 323.05 278.692 329 285.575L310.8 302.375C302.05 293.158 291.492 288.55 279.125 288.55C271.309 288.55 264.367 290.183 258.3 293.45C252.234 296.717 247.509 301.325 244.125 307.275C240.742 313.225 239.05 320.05 239.05 327.75C239.05 335.333 240.742 342.1 244.125 348.05C247.509 354 252.175 358.667 258.125 362.05C264.192 365.317 271.075 366.95 278.775 366.95C286.942 366.95 294.292 365.2 300.825 361.7V325.825ZM364.735 390.6C359.268 390.6 354.668 388.733 350.935 385C347.202 381.267 345.335 376.6 345.335 371C345.335 365.267 347.202 360.667 350.935 357.2C354.668 353.6 359.268 351.8 364.735 351.8C370.202 351.8 374.802 353.6 378.535 357.2C382.268 360.667 384.135 365.267 384.135 371C384.135 376.6 382.268 381.267 378.535 385C374.802 388.733 370.202 390.6 364.735 390.6Z" fill="white"/>
</svg>
