<svg width="16" height="16" viewBox="0 0 16 16" fill="none" xmlns="http://www.w3.org/2000/svg">
<path d="M13.7808 4.21983C13.9212 4.36045 14.0001 4.55108 14.0001 4.74983C14.0001 4.94858 13.9212 5.1392 13.7808 5.27983L6.5308 12.5298C6.39017 12.6703 6.19955 12.7492 6.0008 12.7492C5.80205 12.7492 5.61142 12.6703 5.4708 12.5298L2.2208 9.27983C2.08839 9.13757 2.01629 8.94952 2.01964 8.7552C2.023 8.56088 2.10156 8.37543 2.2388 8.23783C2.3764 8.10058 2.56185 8.02203 2.75617 8.01867C2.95049 8.01532 3.13854 8.08742 3.2808 8.21983L6.0008 10.9398L12.7208 4.21983C12.8614 4.07938 13.052 4.00049 13.2508 4.00049C13.4495 4.00049 13.6402 4.07938 13.7808 4.21983Z" fill="#176F2C"/>
</svg>
