<svg width="16" height="16" viewBox="0 0 16 16" fill="none" xmlns="http://www.w3.org/2000/svg">
<path fill-rule="evenodd" clip-rule="evenodd" d="M8.22056 1.75373C8.12638 1.57753 7.87377 1.57753 7.77959 1.75374L1.69795 13.1323C1.60894 13.2989 1.72961 13.5002 1.91843 13.5002H14.0817C14.2706 13.5002 14.3912 13.2989 14.3022 13.1323L8.22056 1.75373ZM6.4567 1.04667C7.11596 -0.186781 8.8842 -0.186782 9.54346 1.04667L15.6251 12.4253C16.2482 13.591 15.4035 15.0002 14.0817 15.0002H1.91843C0.596638 15.0002 -0.248009 13.591 0.375058 12.4253L6.4567 1.04667ZM9.00008 11.0002C9.00008 11.5525 8.55237 12.0002 8.00008 12.0002C7.4478 12.0002 7.00008 11.5525 7.00008 11.0002C7.00008 10.4479 7.4478 10.0002 8.00008 10.0002C8.55237 10.0002 9.00008 10.4479 9.00008 11.0002ZM8.75008 5.75015C8.75008 5.33594 8.41429 5.00015 8.00008 5.00015C7.58587 5.00015 7.25008 5.33594 7.25008 5.75015V8.25015C7.25008 8.66436 7.58587 9.00015 8.00008 9.00015C8.41429 9.00015 8.75008 8.66436 8.75008 8.25015V5.75015Z" fill="#9A6700"/>
</svg>
